<svg width="23" height="23" viewBox="0 0 23 23" fill="none" xmlns="http://www.w3.org/2000/svg">
<path opacity="0.3" fill-rule="evenodd" clip-rule="evenodd" d="M4.79102 2.9165C4.79102 2.36422 5.23873 1.9165 5.79102 1.9165H17.2077C17.76 1.9165 18.2077 2.36422 18.2077 2.9165V11.4582C18.2077 12.0105 17.76 12.4582 17.2077 12.4582H5.79102C5.23873 12.4582 4.79102 12.0105 4.79102 11.4582V2.9165ZM6.70768 5.27067C6.70768 5.00603 6.92221 4.7915 7.18685 4.7915H12.9368C13.2015 4.7915 13.416 5.00603 13.416 5.27067C13.416 5.53531 13.2015 5.74984 12.9368 5.74984H7.18685C6.92221 5.74984 6.70768 5.53531 6.70768 5.27067ZM7.18685 6.70817C6.92221 6.70817 6.70768 6.9227 6.70768 7.18734C6.70768 7.45197 6.92221 7.6665 7.18685 7.6665H10.0618C10.3265 7.6665 10.541 7.45197 10.541 7.18734C10.541 6.9227 10.3265 6.70817 10.0618 6.70817H7.18685Z" fill="#B0B7C3"/>
<path fill-rule="evenodd" clip-rule="evenodd" d="M2.875 6.7277C2.875 6.31981 3.33708 6.08354 3.66775 6.32236L11.5 11.979L19.3323 6.32236C19.6629 6.08354 20.125 6.31981 20.125 6.7277V16.2082C20.125 17.3127 19.2296 18.2082 18.125 18.2082H4.875C3.77043 18.2082 2.875 17.3127 2.875 16.2082V6.7277Z" fill="#B0B7C3"/>
</svg>
