<svg width="96" height="26" viewBox="0 0 96 26" fill="none" xmlns="http://www.w3.org/2000/svg">
<path d="M30.6912 18.9943H26.7685V17.221C26.1849 17.9504 25.5949 18.4691 24.9984 18.7804C24.4019 19.0884 23.6724 19.244 22.8068 19.244C21.6527 19.244 20.745 18.8971 20.0869 18.2065C19.4288 17.516 19.1013 16.4494 19.1013 15.0132V8.03662H23.3223V14.0634C23.3223 14.7507 23.4487 15.2402 23.7049 15.5287C23.961 15.8172 24.3176 15.9631 24.7779 15.9631C25.2804 15.9631 25.6922 15.7719 26.0099 15.3861C26.3308 15.0003 26.4897 14.3097 26.4897 13.3112V8.03662H30.688V18.9943H30.6912Z" fill="black"/>
<path d="M38.3033 3.86768V8.0368H40.6148V11.1101H38.3033V14.9907C38.3033 15.4576 38.3487 15.7655 38.4362 15.9179C38.5724 16.1513 38.8155 16.268 39.1592 16.268C39.4672 16.268 39.9016 16.1773 40.4592 15.999L40.7672 18.8973C39.7298 19.1242 38.7572 19.2377 37.8592 19.2377C36.812 19.2377 36.0437 19.1047 35.5477 18.8357C35.0517 18.5666 34.6853 18.1613 34.4487 17.6134C34.212 17.0656 34.0921 16.1838 34.0921 14.9616V11.1101H32.5457V8.0368H34.0921V6.02356L38.3033 3.86768Z" fill="black"/>
<path d="M42.6571 8.03691H46.5895V9.83294C46.9688 9.05488 47.3578 8.51996 47.7598 8.22819C48.1618 7.93641 48.6579 7.79053 49.2511 7.79053C49.8703 7.79053 50.5479 7.9818 51.2838 8.36759L49.9838 11.3599C49.4878 11.1524 49.0955 11.0519 48.807 11.0519C48.2559 11.0519 47.8312 11.2788 47.5264 11.7327C47.092 12.3714 46.8748 13.5709 46.8748 15.3248V18.9979H42.6538V8.03691H42.6571Z" fill="black"/>
<path d="M67.8437 8.03662H71.7761V20.1452L71.7859 20.6315C71.7859 21.3188 71.64 21.9737 71.3482 22.5961C71.0564 23.2186 70.6674 23.7211 70.1811 24.1069C69.6948 24.4926 69.0821 24.7715 68.3332 24.9433C67.5876 25.1151 66.7317 25.2026 65.7688 25.2026C63.5676 25.2026 62.0568 24.872 61.2334 24.2106C60.4099 23.5492 60.0015 22.6674 60.0015 21.5587C60.0015 21.4225 60.0079 21.2345 60.0209 21.0011L64.096 21.4647C64.1997 21.844 64.3586 22.1033 64.5693 22.2492C64.8773 22.4632 65.2663 22.5702 65.7364 22.5702C66.3427 22.5702 66.7933 22.4081 67.0948 22.0839C67.393 21.7597 67.5422 21.1956 67.5422 20.3916V18.7317C67.1304 19.2213 66.7155 19.5746 66.3038 19.7951C65.6586 20.1387 64.9584 20.3106 64.2095 20.3106C62.7441 20.3106 61.5608 19.6719 60.6596 18.3913C60.0209 17.4836 59.7 16.2841 59.7 14.7896C59.7 13.0843 60.1117 11.7843 60.9384 10.8895C61.7651 9.99474 62.8446 9.54736 64.1771 9.54736C65.0297 9.54736 65.7332 9.69325 66.2875 9.98178C66.8419 10.2703 67.3574 10.7501 67.8404 11.4147V8.03662H67.8437ZM63.8918 15.1105C63.8918 15.9015 64.0603 16.4883 64.3975 16.8709C64.7347 17.2534 65.1788 17.4447 65.7299 17.4447C66.2519 17.4447 66.6928 17.2469 67.0462 16.8514C67.3995 16.4559 67.5778 15.8594 67.5778 15.0619C67.5778 14.2644 67.393 13.6549 67.0202 13.2302C66.6474 12.8087 66.1935 12.5948 65.6586 12.5948C65.1237 12.5948 64.6925 12.7893 64.3748 13.1783C64.0571 13.5673 63.8918 14.2093 63.8918 15.1105Z" fill="black"/>
<path d="M74.3114 3.86768H78.5096V9.44055C79.0802 8.85052 79.6476 8.42583 80.2117 8.17296C80.7757 7.91684 81.4436 7.79041 82.2119 7.79041C83.3531 7.79041 84.2543 8.13729 84.9092 8.83107C85.5673 9.52484 85.8948 10.5914 85.8948 12.0308V18.9945H81.6738V12.9678C81.6738 12.2805 81.5473 11.7942 81.2912 11.5089C81.0351 11.2236 80.6785 11.081 80.2181 11.081C79.7092 11.081 79.2974 11.2722 78.9797 11.658C78.662 12.0438 78.5064 12.7343 78.5064 13.7329V18.9945H74.3081V3.86768H74.3114Z" fill="black"/>
<path d="M93.4745 3.86768V8.0368H95.7859V11.1101H93.4745V14.9907C93.4745 15.4576 93.5198 15.7655 93.6074 15.9179C93.7435 16.1513 93.9867 16.268 94.3303 16.268C94.6383 16.268 95.0727 16.1773 95.6303 15.999L95.9383 18.8973C94.9009 19.1242 93.9283 19.2377 93.0303 19.2377C91.9832 19.2377 91.2148 19.1047 90.7188 18.8357C90.2228 18.5666 89.8565 18.1613 89.6198 17.6134C89.3831 17.0656 89.2632 16.1838 89.2632 14.9616V11.1101H87.7168V8.0368H89.2632V6.02356L93.4745 3.86768Z" fill="black"/>
<path d="M53.7833 15.3505L49.277 12.5203L47.8733 14.7572L55.5469 19.5779L55.9262 17.7073C56.8826 12.9871 59.3886 8.64615 63.5545 4.49972L61.7941 2.52539C57.7255 6.54538 55.0833 10.7729 53.7833 15.3505Z" fill="#8053FF"/>
<path d="M64.5464 0C63.9208 0.557612 63.3242 1.11522 62.7537 1.67932L64.514 3.65365C65.0814 3.08956 65.6714 2.5287 66.3003 1.97109L64.5464 0Z" fill="#8053FF"/>
<path d="M8.70782 5.34935C11.5672 5.34935 13.8917 7.67381 13.8917 10.5332C13.8917 13.3926 11.5672 15.717 8.70782 15.717C5.84844 15.717 3.52398 13.3926 3.52398 10.5332C3.52398 7.67705 5.85168 5.34935 8.70782 5.34935ZM8.70782 1.82861C3.90004 1.82861 0 5.72541 0 10.5364C0 15.3475 3.8968 19.2442 8.70782 19.2442C13.5188 19.2442 17.4156 15.3475 17.4156 10.5364C17.4156 5.72541 13.5188 1.82861 8.70782 1.82861Z" fill="black"/>
<path d="M75.1252 21.4001V24.1525H76.6781C76.8013 24.1525 76.8953 24.1849 76.9634 24.2433C77.0315 24.3049 77.0639 24.3795 77.0639 24.4702C77.0639 24.5642 77.0315 24.6388 76.9666 24.6972C76.9018 24.7555 76.8078 24.7847 76.6813 24.7847H74.8302C74.6649 24.7847 74.5417 24.749 74.4703 24.6745C74.3958 24.5999 74.3601 24.4799 74.3601 24.3146V21.4034C74.3601 21.2477 74.3958 21.131 74.4639 21.0532C74.5319 20.9754 74.6259 20.9365 74.7394 20.9365C74.8561 20.9365 74.9469 20.9754 75.0182 21.05C75.0895 21.1278 75.1252 21.2445 75.1252 21.4001Z" fill="#8053FF"/>
<path d="M81.1683 21.5911H79.4436V22.5183H81.0321C81.1488 22.5183 81.2364 22.5443 81.2947 22.5961C81.3531 22.648 81.3822 22.7193 81.3822 22.8036C81.3822 22.8879 81.3563 22.9592 81.2947 23.0143C81.2396 23.0695 81.1488 23.0954 81.0321 23.0954H79.4436V24.1717H81.2299C81.3498 24.1717 81.4406 24.1977 81.5022 24.256C81.5638 24.3111 81.593 24.3857 81.593 24.4765C81.593 24.5672 81.5605 24.6386 81.5022 24.6937C81.4406 24.752 81.3498 24.778 81.2299 24.778H79.1485C78.9832 24.778 78.86 24.7423 78.7887 24.6677C78.7141 24.5932 78.6785 24.4732 78.6785 24.3079V21.4647C78.6785 21.3545 78.6947 21.2637 78.7271 21.1956C78.7595 21.1275 78.8114 21.0757 78.8827 21.0433C78.9508 21.0108 79.0416 20.9946 79.1485 20.9946H81.1715C81.2947 20.9946 81.3855 21.0206 81.4438 21.0757C81.5054 21.1308 81.5346 21.2021 81.5346 21.2896C81.5346 21.3804 81.5054 21.4517 81.4438 21.5036C81.3822 21.5652 81.2882 21.5911 81.1683 21.5911Z" fill="#8053FF"/>
<path d="M86.7605 23.2446V23.9708C86.7605 24.0681 86.7508 24.1427 86.7346 24.201C86.7152 24.2594 86.6827 24.3112 86.6309 24.3566C86.5822 24.4052 86.5142 24.4506 86.4363 24.4895C86.2062 24.6127 85.989 24.7035 85.775 24.7619C85.5643 24.8202 85.3341 24.8494 85.0845 24.8494C84.7927 24.8494 84.5301 24.804 84.2902 24.7165C84.0503 24.6257 83.846 24.496 83.6775 24.3274C83.5089 24.1556 83.3792 23.9514 83.2917 23.7082C83.2009 23.4651 83.1555 23.1928 83.1555 22.8945C83.1555 22.6027 83.2009 22.3337 83.2852 22.0873C83.376 21.8441 83.5024 21.6334 83.6742 21.4681C83.8428 21.2962 84.0503 21.1666 84.2934 21.0758C84.5366 20.985 84.8154 20.9429 85.1234 20.9429C85.3795 20.9429 85.6032 20.9753 85.7977 21.0434C85.9922 21.1115 86.1511 21.1957 86.2743 21.2995C86.3974 21.4032 86.4882 21.5135 86.5498 21.6269C86.6114 21.7436 86.6438 21.8441 86.6438 21.9349C86.6438 22.0322 86.6082 22.1132 86.5368 22.1813C86.4655 22.2494 86.378 22.285 86.2807 22.285C86.2224 22.285 86.1738 22.2721 86.1219 22.2461C86.0733 22.2202 86.0279 22.1845 85.9954 22.1391C85.9014 21.99 85.8204 21.8798 85.7555 21.8052C85.6875 21.7307 85.5999 21.6658 85.4897 21.614C85.3795 21.5621 85.2368 21.5361 85.065 21.5361C84.8867 21.5361 84.7311 21.5686 84.5917 21.6269C84.4523 21.6885 84.3323 21.776 84.2351 21.8928C84.1378 22.0095 84.06 22.1521 84.0081 22.3207C83.9563 22.4893 83.9303 22.6773 83.9303 22.8783C83.9303 23.3224 84.0308 23.6628 84.2351 23.9028C84.4393 24.1427 84.7246 24.2594 85.0877 24.2594C85.266 24.2594 85.4314 24.2367 85.587 24.1913C85.7426 24.1459 85.9014 24.0811 86.0603 23.9903V23.3776H85.4702C85.3244 23.3776 85.2206 23.3549 85.1461 23.3127C85.0747 23.2706 85.0391 23.196 85.0391 23.0923C85.0391 23.0112 85.0683 22.9399 85.1299 22.8848C85.1914 22.8297 85.2725 22.8037 85.3795 22.8037H86.2483C86.3553 22.8037 86.4428 22.8135 86.5174 22.8329C86.592 22.8524 86.6503 22.8945 86.6989 22.9594C86.7378 23.0145 86.7605 23.115 86.7605 23.2446Z" fill="#8053FF"/>
<path d="M90.8195 24.3535L90.6379 23.8802H89.1012L88.9197 24.3665C88.8484 24.5545 88.79 24.6842 88.7381 24.749C88.6895 24.8139 88.6085 24.8495 88.495 24.8495C88.3977 24.8495 88.3135 24.8139 88.2389 24.7425C88.1643 24.6712 88.1287 24.5934 88.1287 24.5026C88.1287 24.4508 88.1384 24.3989 88.1546 24.3438C88.1708 24.2887 88.2 24.2109 88.2389 24.1136L89.2082 21.6595C89.2342 21.5882 89.2698 21.5039 89.3055 21.4034C89.3444 21.3061 89.3865 21.2218 89.4287 21.157C89.4741 21.0921 89.5292 21.037 89.6037 20.9981C89.6751 20.956 89.7626 20.9365 89.8696 20.9365C89.9733 20.9365 90.0641 20.956 90.1354 20.9981C90.2067 21.037 90.2651 21.0921 90.3072 21.1537C90.3526 21.2186 90.3883 21.2834 90.4175 21.358C90.4466 21.4293 90.4855 21.5298 90.5309 21.6497L91.5197 24.0909C91.5975 24.2757 91.6364 24.4119 91.6364 24.4962C91.6364 24.5837 91.6008 24.6615 91.5294 24.7361C91.4549 24.8074 91.3674 24.8463 91.2636 24.8463C91.202 24.8463 91.1534 24.8333 91.108 24.8139C91.0658 24.7912 91.0302 24.762 91.001 24.7263C90.9718 24.6874 90.9394 24.6323 90.907 24.5545C90.8746 24.4799 90.8454 24.4119 90.8195 24.3535ZM89.3022 23.3031H90.4304L89.8599 21.7438L89.3022 23.3031Z" fill="#8053FF"/>
<path d="M94.058 21.4001V24.1525H95.6141C95.7373 24.1525 95.8313 24.1849 95.8994 24.2433C95.9675 24.3049 95.9999 24.3795 95.9999 24.4702C95.9999 24.5642 95.9675 24.6388 95.9027 24.6972C95.8378 24.7555 95.7406 24.7847 95.6174 24.7847H93.7662C93.6009 24.7847 93.4777 24.749 93.4064 24.6745C93.3318 24.5999 93.2961 24.4799 93.2961 24.3146V21.4034C93.2961 21.2477 93.3318 21.131 93.3999 21.0532C93.468 20.9754 93.562 20.9365 93.6754 20.9365C93.7889 20.9365 93.8829 20.9754 93.9543 21.05C94.0223 21.1278 94.058 21.2445 94.058 21.4001Z" fill="#8053FF"/>
</svg>
