<svg width="24" height="24" viewBox="0 0 24 24" fill="none" xmlns="http://www.w3.org/2000/svg">
<g clip-path="url(#clip0_24_2810)">
<path opacity="0.3" d="M19 4C20.1046 4 21 4.89543 21 6L21 18C21 19.1046 20.1046 20 19 20L3 20C1.89543 20 0.999999 19.1046 0.999999 18L1 6C1 4.89543 1.89543 4 3 4L19 4Z" fill="#B0B7C3"/>
<rect opacity="0.3" x="15" y="17" width="11" height="2" rx="1" transform="rotate(-180 15 17)" fill="#B0B7C3"/>
<rect opacity="0.3" x="18" y="17" width="2" height="2" rx="1" transform="rotate(-180 18 17)" fill="#B0B7C3"/>
<rect opacity="0.3" x="18" y="13" width="2" height="2" rx="1" transform="rotate(-180 18 13)" fill="#B0B7C3"/>
<rect opacity="0.3" x="15" y="13" width="11" height="2" rx="1" transform="rotate(-180 15 13)" fill="#B0B7C3"/>
<rect opacity="0.3" x="18" y="9" width="2" height="2" rx="1" transform="rotate(-180 18 9)" fill="#B0B7C3"/>
<rect opacity="0.3" x="15" y="9" width="11" height="2" rx="1" transform="rotate(-180 15 9)" fill="#B0B7C3"/>
</g>
<defs>
<clipPath id="clip0_24_2810">
<rect width="24" height="24" fill="white"/>
</clipPath>
</defs>
</svg>
