<svg width="24" height="24" viewBox="0 0 24 24" fill="none" xmlns="http://www.w3.org/2000/svg">
<rect opacity="0.01" width="24" height="24" fill="#C1C7D0"/>
<path opacity="0.3" fill-rule="evenodd" clip-rule="evenodd" d="M1.71436 12.0001C1.71436 9.15975 2.71856 6.73538 4.72697 4.72697C6.73538 2.71856 9.15975 1.71436 12.0001 1.71436C14.8404 1.71436 17.2648 2.71856 19.2732 4.72697C21.2816 6.73538 22.2858 9.15975 22.2858 12.0001C22.2858 14.8404 21.2816 17.2648 19.2732 19.2732C17.2648 21.2816 14.8404 22.2858 12.0001 22.2858C9.15975 22.2858 6.73538 21.2816 4.72697 19.2732C2.71856 17.2648 1.71436 14.8404 1.71436 12.0001Z" fill="#C1C7D0"/>
<path fill-rule="evenodd" clip-rule="evenodd" d="M6.16465 14.5655C5.96648 14.2687 5.94181 13.8886 6.09993 13.5686C6.25805 13.2486 6.57492 13.0373 6.93112 13.0143C7.28733 12.9913 7.62871 13.1602 7.82663 13.4572C8.98207 15.1913 10.3458 16.009 11.9898 16.009C13.6338 16.009 14.9975 15.1904 16.1529 13.4573C16.459 12.9983 17.0791 12.8744 17.5381 13.1804C17.997 13.4864 18.121 14.1066 17.8149 14.5655C16.3072 16.8275 14.3409 18.007 11.9864 18.007C9.63179 18.007 7.66893 16.8275 6.16465 14.5655Z" fill="#C1C7D0"/>
</svg>
